<?xml version="1.0" encoding="UTF-8"?>
<svg id="Capa_2" xmlns="http://www.w3.org/2000/svg" xmlns:xlink="http://www.w3.org/1999/xlink" viewBox="0 0 346.38 89.97">
  <defs>
    <style>
      .cls-1 {
        fill: none;
        stroke: #00cbff;
        stroke-miterlimit: 22.93;
        stroke-width: .76px;
      }

      .cls-2 {
        mask: url(#mask);
      }

      .cls-3 {
        fill: #fff;
      }

      .cls-3, .cls-4 {
        fill-rule: evenodd;
      }

      .cls-5 {
        fill: url(#Degradado_sin_nombre_2);
      }

      .cls-4 {
        fill: #00adee;
      }

      .cls-6 {
        fill: #00cbff;
        font-family: ArsonPro, 'Arson Pro';
        font-size: 23.5px;
      }
    </style>
    <linearGradient id="Degradado_sin_nombre_2" data-name="Degradado sin nombre 2" x1="168.45" y1="500.68" x2="168.45" y2="546.55" gradientTransform="translate(36.54 -503.22)" gradientUnits="userSpaceOnUse">
      <stop offset="0" stop-color="#fff"/>
      <stop offset="1" stop-color="#000"/>
    </linearGradient>
    <mask id="mask" x="63.61" y="7.96" width="282.77" height="31.52" maskUnits="userSpaceOnUse">
      <rect class="cls-5" x="63.61" y="7.96" width="282.77" height="31.52"/>
    </mask>
  </defs>
  <g id="Capa_1-2" data-name="Capa_1">
    <g>
      <text class="cls-6" transform="translate(58.37 84.88) scale(1 1.11)"><tspan x="0" y="0">P</tspan></text>
      <text class="cls-6" transform="translate(88.2 84.88) scale(1 1.11)"><tspan x="0" y="0">U</tspan></text>
      <text class="cls-6" transform="translate(120.17 84.88) scale(1 1.11)"><tspan x="0" y="0">B</tspan></text>
      <text class="cls-6" transform="translate(151.27 84.88) scale(1 1.11)"><tspan x="0" y="0">L</tspan></text>
      <text class="cls-6" transform="translate(179.95 84.88) scale(1 1.11)"><tspan x="0" y="0">I</tspan></text>
      <text class="cls-6" transform="translate(200.92 84.88) scale(1 1.11)"><tspan x="0" y="0">C</tspan></text>
      <text class="cls-6" transform="translate(232.4 84.88) scale(1 1.11)"><tspan x="0" y="0">I</tspan></text>
      <text class="cls-6" transform="translate(253.37 84.88) scale(1 1.11)"><tspan x="0" y="0">D</tspan></text>
      <text class="cls-6" transform="translate(284.8 84.88) scale(1 1.11)"><tspan x="0" y="0">A</tspan></text>
      <text class="cls-6" transform="translate(317.5 84.88) scale(1 1.11)"><tspan x="0" y="0">D</tspan></text>
      <path class="cls-4" d="M36.35,38.11v45.31c0,1.56-1.34,2.84-2.98,2.84H3.36c-1.64,0-2.98-1.28-2.98-2.84V27.68c3.4-1.86,6.85-3.09,10.25.94,2.02,1.88,3.54,2.8,6.19.11,4.92-4.17,7.75-1.44,9.34-.16,3.64,2.95,6.96,6.2,10.2,9.54ZM3.36.38h30.01c1.64,0,2.98,1.28,2.98,2.84v27.96c-7.89-10.22-15.62-13.09-22.46-6.55-4.36-4.14-8.89-4.43-13.51-2.74V3.22C.38,1.66,1.72.38,3.36.38Z"/>
      <path class="cls-1" d="M36.35,38.11v45.31c0,1.56-1.34,2.84-2.98,2.84H3.36c-1.64,0-2.98-1.28-2.98-2.84V27.68c3.4-1.86,6.85-3.09,10.25.94,2.02,1.88,3.54,2.8,6.19.11,4.92-4.17,7.75-1.44,9.34-.16,3.64,2.95,6.96,6.2,10.2,9.54ZM3.36.38h30.01c1.64,0,2.98,1.28,2.98,2.84v27.96c-7.89-10.22-15.62-13.09-22.46-6.55-4.36-4.14-8.89-4.43-13.51-2.74V3.22C.38,1.66,1.72.38,3.36.38Z"/>
      <path class="cls-4" d="M170.13,23.44h1.67c2.61,0,4.75,2.73,4.75,6.07v16.25c0,3.34-2.14,6.07-4.75,6.07h-1.67c-2.61,0-4.75-2.73-4.75-6.07v-16.25c0-3.34,2.14-6.07,4.75-6.07M171.07,7.96c2.98,0,5.4,2.77,5.4,6.2s-2.42,6.19-5.4,6.19-5.4-2.77-5.4-6.19,2.42-6.2,5.4-6.2ZM193.85,29.29c0,.07,0,.15,0,.22v16.25c0,3.34-2.14,6.07-4.75,6.07h-1.67c-2.61,0-4.75-2.73-4.75-6.07v-16.25c0-.27.01-.53.04-.79.09-9.24,4.1-15.21,9.72-15.84h0c.2-.02.4-.03.61-.03h33.26c2.91,0,5.29,2.45,5.29,5.44v1.91c0,2.99-2.38,5.45-5.29,5.45h-30.14c-1.58.37-2.24,1.68-2.27,3.63h-.07ZM251.96,25.35h25.96c3.42,0,6.22,3.21,6.22,7.14s-2.8,7.14-6.22,7.14h-25.96c-3.42,0-6.22-3.21-6.22-7.14s2.8-7.14,6.22-7.14ZM249.2,13.54h31.48c7.4,0,13.45,6.94,13.45,15.43v6.57c0,8.49-6.05,15.43-13.45,15.43h-31.48c-7.4,0-13.45-6.95-13.45-15.43v-6.57c0-8.49,6.05-15.43,13.45-15.43ZM300.88,42.42h7.92c1.37-.36,2.79-1.03,4.78-4.77,6.61-13.99,12.37-27.16,19.04-27.16.31-.05.62-.08.94-.08h7.31c3.03,0,5.51,2.44,5.51,5.42s-2.48,5.42-5.51,5.42h-7.08c-3.95.61-7.37,9.56-10.85,17.63-2.53,7.61-8.37,12.89-10.83,13.75-.72.33-1.53.51-2.38.51h-8.86c-3.07,0-5.59-2.41-5.59-5.36s2.51-5.36,5.59-5.36ZM105.58,20.16c-11.59-10.47-23.08-11.61-34.27-.41-5.72,6.57-12.8,13.38-18.53,19.94-2.61,2.54,3.41,11.97,8.44,9.69,5.63-6.46,11.26-12.91,16.88-19.37,3.62-4.93,11.13-7.65,19.6,0,7.23,7.8,10.25,8.06,16.45,0,5.64-6.59,13.65-6.32,19.89,0,5.25,6.07,10.49,12.15,15.74,18.22,2.47,3.34,11.38-2.66,9.01-8.37-10.9-13.23-19.95-25.66-31.05-27.41-8.27-.87-16,1.75-19.89,7.88-.64.79-1.45.79-2.29-.17Z"/>
      <g class="cls-2">
        <path class="cls-3" d="M171.07,7.96c2.98,0,5.4,2.77,5.4,6.2s-2.42,6.19-5.4,6.19-5.4-2.77-5.4-6.19,2.42-6.2,5.4-6.2M176.54,39.14c-3.75-.11-7.47-.24-11.16-.39v-9.24c0-3.34,2.14-6.07,4.75-6.07h1.67c2.61,0,4.75,2.73,4.75,6.07v9.63ZM193.86,39.48c-3.74-.04-7.46-.1-11.16-.18v-9.78c0-.27.01-.53.04-.79.09-9.24,4.1-15.21,9.72-15.84h0c.2-.02.4-.03.61-.03h33.26c2.91,0,5.29,2.45,5.29,5.44v1.91c0,2.99-2.38,5.45-5.29,5.45h-30.14c-1.58.37-2.24,1.68-2.27,3.63h-.07c0,.07,0,.15,0,.22v9.97ZM294.14,35.12c-3.59.37-7.21.71-10.88,1.04.56-1.07.89-2.33.89-3.67,0-3.93-2.8-7.14-6.22-7.14h-25.96c-3.42,0-6.22,3.21-6.22,7.14,0,2.51,1.15,4.73,2.87,6-4.14.2-8.31.37-12.51.51-.23-1.12-.35-2.28-.35-3.47v-6.57c0-8.49,6.05-15.43,13.45-15.43h31.48c7.4,0,13.45,6.94,13.45,15.43v6.15ZM326.32,31.1c-3.4.51-6.84.99-10.34,1.46,5.63-11.93,10.79-22.06,16.64-22.06.31-.05.62-.08.94-.08h7.31c3.03,0,5.51,2.44,5.51,5.42s-2.48,5.42-5.51,5.42h-7.08c-2.67.41-5.1,4.65-7.47,9.84ZM105.58,20.16c-11.59-10.47-23.08-11.61-34.27-.41-2.39,2.75-5.03,5.54-7.7,8.33,4.59.83,9.29,1.62,14.1,2.37l.39-.45c3.62-4.93,11.13-7.65,19.6,0,1.42,1.53,2.68,2.77,3.83,3.72,2.72.33,5.47.64,8.24.94,1.33-.98,2.74-2.53,4.38-4.66,5.64-6.59,13.65-6.32,19.89,0l6.36,7.36c5.65.39,11.39.74,17.19,1.03-10.37-12.67-19.16-24.26-29.85-25.95-8.27-.87-16,1.75-19.89,7.88-.64.79-1.45.79-2.29-.17Z"/>
      </g>
    </g>
  </g>
</svg>