<?xml version="1.0" encoding="UTF-8"?>
<svg id="Capa_2" xmlns="http://www.w3.org/2000/svg" viewBox="0 0 36.73 86.64">
  <defs>
    <style>
      .cls-1 {
        fill: none;
        stroke: #00cbff;
        stroke-miterlimit: 22.93;
        stroke-width: .76px;
      }

      .cls-2 {
        fill: #00adee;
        fill-rule: evenodd;
      }
    </style>
  </defs>
  <g id="Capa_1-2" data-name="Capa_1">
    <g>
      <path class="cls-2" d="M36.35,38.11v45.31c0,1.56-1.34,2.84-2.98,2.84H3.36c-1.64,0-2.98-1.28-2.98-2.84V27.68c3.4-1.86,6.85-3.09,10.25.94,2.02,1.88,3.54,2.8,6.19.11,4.92-4.17,7.75-1.44,9.34-.16,3.64,2.95,6.96,6.2,10.2,9.54ZM3.36.38h30.01c1.64,0,2.98,1.28,2.98,2.84v27.96c-7.89-10.22-15.62-13.09-22.46-6.55-4.36-4.14-8.89-4.43-13.51-2.74V3.22C.38,1.66,1.72.38,3.36.38Z"/>
      <path class="cls-1" d="M36.35,38.11v45.31c0,1.56-1.34,2.84-2.98,2.84H3.36c-1.64,0-2.98-1.28-2.98-2.84V27.68c3.4-1.86,6.85-3.09,10.25.94,2.02,1.88,3.54,2.8,6.19.11,4.92-4.17,7.75-1.44,9.34-.16,3.64,2.95,6.96,6.2,10.2,9.54ZM3.36.38h30.01c1.64,0,2.98,1.28,2.98,2.84v27.96c-7.89-10.22-15.62-13.09-22.46-6.55-4.36-4.14-8.89-4.43-13.51-2.74V3.22C.38,1.66,1.72.38,3.36.38Z"/>
    </g>
  </g>
</svg>